HIERARCHY
ROOT Hips
{
	OFFSET 0.00000 0.00000 0.00000
	CHANNELS 6 Xposition Yposition Zposition Zrotation Yrotation Xrotation 
	JOINT LHipJoint
	{
		OFFSET 0 0 0
		CHANNELS 3 Zrotation Yrotation Xrotation
		JOINT LeftUpLeg
		{
			OFFSET 1.65674 -1.80282 0.62477
			CHANNELS 3 Zrotation Yrotation Xrotation
			JOINT LeftLeg
			{
				OFFSET 2.59720 -7.13576 0.00000
				CHANNELS 3 Zrotation Yrotation Xrotation
				JOINT LeftFoot
				{
					OFFSET 2.49236 -6.84770 0.00000
					CHANNELS 3 Zrotation Yrotation Xrotation
					JOINT LeftToeBase
					{
						OFFSET 0.19704 -0.54136 2.14581
						CHANNELS 3 Zrotation Yrotation Xrotation
						End Site
						{
							OFFSET 0.00000 -0.00000 1.11249
						}
					}
				}
			}
		}
	}
	JOINT RHipJoint
	{
		OFFSET 0 0 0
		CHANNELS 3 Zrotation Yrotation Xrotation
		JOINT RightUpLeg
		{
			OFFSET -1.61070 -1.80282 0.62476
			CHANNELS 3 Zrotation Yrotation Xrotation
			JOINT RightLeg
			{
				OFFSET -2.59502 -7.12977 0.00000
				CHANNELS 3 Zrotation Yrotation Xrotation
				JOINT RightFoot
				{
					OFFSET -2.46780 -6.78024 0.00000
					CHANNELS 3 Zrotation Yrotation Xrotation
					JOINT RightToeBase
					{
						OFFSET -0.23024 -0.63258 2.13368
						CHANNELS 3 Zrotation Yrotation Xrotation
						End Site
						{
							OFFSET -0.00000 -0.00000 1.11569
						}
					}
				}
			}
		}
	}
	JOINT LowerBack
	{
		OFFSET 0 0 0
		CHANNELS 3 Zrotation Yrotation Xrotation
		JOINT Spine
		{
			OFFSET 0.01961 2.05450 -0.14112
			CHANNELS 3 Zrotation Yrotation Xrotation
			JOINT Spine1
			{
				OFFSET 0.01021 2.06436 -0.05921
				CHANNELS 3 Zrotation Yrotation Xrotation
				JOINT Neck
				{
					OFFSET 0 0 0
					CHANNELS 3 Zrotation Yrotation Xrotation
					JOINT Neck1
					{
						OFFSET 0.00713 1.56711 0.14968
						CHANNELS 3 Zrotation Yrotation Xrotation
						JOINT Head
						{
							OFFSET 0.03429 1.56041 -0.10006
							CHANNELS 3 Zrotation Yrotation Xrotation
							End Site
							{
								OFFSET 0.01305 1.62560 -0.05265
							}
						}
					}
				}
				JOINT LeftShoulder
				{
					OFFSET 0 0 0
					CHANNELS 3 Zrotation Yrotation Xrotation
					JOINT LeftArm
					{
						OFFSET 3.54205 0.90436 -0.17364
						CHANNELS 3 Zrotation Yrotation Xrotation
						JOINT LeftForeArm
						{
							OFFSET 4.86513 -0.00000 -0.00000
							CHANNELS 3 Zrotation Yrotation Xrotation
							JOINT LeftHand
							{
								OFFSET 3.35554 -0.00000 0.00000
								CHANNELS 3 Zrotation Yrotation Xrotation
								JOINT LeftFingerBase
								{
									OFFSET 0 0 0
									CHANNELS 3 Zrotation Yrotation Xrotation
									JOINT LeftHandIndex1
									{
										OFFSET 0.66117 -0.00000 0.00000
										CHANNELS 3 Zrotation Yrotation Xrotation
										End Site
										{
											OFFSET 0.53306 -0.00000 0.00000
										}
									}
								}
								JOINT LThumb
								{
									OFFSET 0 0 0
									CHANNELS 3 Zrotation Yrotation Xrotation
									End Site
									{
										OFFSET 0.54120 -0.00000 0.54120
									}
								}
							}
						}
					}
				}
				JOINT RightShoulder
				{
					OFFSET 0 0 0
					CHANNELS 3 Zrotation Yrotation Xrotation
					JOINT RightArm
					{
						OFFSET -3.49802 0.75994 -0.32616
						CHANNELS 3 Zrotation Yrotation Xrotation
						JOINT RightForeArm
						{
							OFFSET -5.02649 -0.00000 0.00000
							CHANNELS 3 Zrotation Yrotation Xrotation
							JOINT RightHand
							{
								OFFSET -3.36431 -0.00000 0.00000
								CHANNELS 3 Zrotation Yrotation Xrotation
								JOINT RightFingerBase
								{
									OFFSET 0 0 0
									CHANNELS 3 Zrotation Yrotation Xrotation
									JOINT RightHandIndex1
									{
										OFFSET -0.73041 -0.00000 0.00000
										CHANNELS 3 Zrotation Yrotation Xrotation
										End Site
										{
											OFFSET -0.58887 -0.00000 0.00000
										}
									}
								}
								JOINT RThumb
								{
									OFFSET 0 0 0
									CHANNELS 3 Zrotation Yrotation Xrotation
									End Site
									{
										OFFSET -0.59786 -0.00000 0.59786
									}
								}
							}
						}
					}
				}
			}
		}
	}
}
MOTION
Frames: 7
Frame Time: 0.0952381
0.00 0.00 0.00 0 0 0 0 0 0 -21 0 0 0 0 0 0 0 0 0 0 0 0 0 0 21 0 0 0 0 0 0 0 0 0 0 0 0 0 0 0 0 0 0 0 0 0 0 -16 0 0 21 0 0 11 0 0 0 -8 0 0 0 0 0 0 0 0 0 0 0 0 0 0 0 0 0 0 0 0 8 0 0 0 0 0 0 0 0 0 0 0 0 0 0 0 0 0
0.00 0.00 0.00 3.1778 3.2695 7.9957 0.0000 0.0000 0.0000 -26.1980 -0.3746 11.1299 3.5693 11.5641 34.2069 0.7513 13.9877 17.1049 0.0000 0.0000 0.0000 0.0000 0.0000 0.0000 16.7611 17.0337 -33.5854 -4.4882 -12.7832 38.5621 -1.3816 -4.5990 -24.2838 -1.3554 7.3696 -20.8150 -3.4081 -4.1649 6.1618 0.8343 -5.7424 0.9887 3.1880 -2.8399 -2.0004 -2.3334 3.2325 -17.3001 -1.1363 4.7057 -3.8934 0.3447 2.3236 1.6541 0.0000 -0.0000 0.0000 -71.8457 -3.3791 63.6690 123.5885 -55.2753 -88.6271 -0.0000 0.0000 -33.1585 31.6592 2.4335 1.4998 -7.1250 0.0000 -0.0000 4.1121 32.8190 -1.2298 0.0000 -0.0000 0.0000 81.9294 -38.4235 38.3957 -75.8048 59.2247 -47.7386 0.0000 -0.0000 -12.1002 -47.3018 33.9010 -31.1520 7.1250 -0.0000 -0.0000 -7.7491 14.4048 -9.5082
0.00 0.00 0.00 3.4122 1.8168 7.2914 0.0000 0.0000 0.0000 -25.9765 -0.3402 3.9858 8.1621 16.2372 53.1444 0.3110 13.3261 12.8385 0.9246 -6.1261 -17.1507 0.0000 0.0000 0.0000 18.5631 15.6352 -30.5410 -4.1861 -12.4040 37.1764 -1.1034 -5.6904 -22.6644 -1.7658 8.3602 -23.8135 -3.6378 -3.5311 7.1108 0.9527 -4.9439 1.0209 3.4571 -2.4269 -2.5273 -2.0364 3.1269 -16.8161 -2.3988 4.5154 -4.1739 -0.1339 2.1925 1.5154 -0.0000 0.0000 0.0000 -73.5260 3.3557 64.9668 118.0835 -56.7994 -84.0597 -0.0000 0.0000 -30.6369 31.7070 0.6831 0.4220 -7.1250 0.0000 -0.0000 4.0829 30.7684 -1.4227 -0.0000 0.0000 0.0000 82.6744 -31.9243 38.4421 -79.2843 59.5616 -50.7336 0.0000 -0.0000 -11.3000 -46.9704 34.0971 -30.9867 7.1250 -0.0000 -0.0000 -7.5159 14.4585 -9.2226
0.00 0.00 0.00 1.0238 0.8200 5.5257 0.0000 0.0000 0.0000 -22.5610 -0.1685 -0.7147 13.0265 18.7917 69.2079 -0.3090 14.2787 5.8757 0.5017 -4.5410 -12.6038 0.0000 0.0000 0.0000 23.0985 14.2664 -26.1279 -4.5336 -12.8385 38.7670 -1.1576 -3.0426 -21.6292 -0.4258 4.1878 -11.6056 -1.1424 -2.9984 8.5123 1.4833 -4.0335 1.9047 2.5951 -1.9979 -2.6020 -1.1959 2.8834 -16.0286 -3.3298 3.9853 -5.7972 -0.6308 1.9251 0.8820 -0.0000 0.0000 0.0000 -73.6854 8.0368 64.6779 112.4253 -58.0118 -79.2913 -0.0000 0.0000 -31.4546 32.5993 0.6117 0.3912 -7.1250 0.0000 -0.0000 4.7872 30.6864 -1.6790 -0.0000 0.0000 0.0000 82.1323 -24.0039 39.7489 -82.8246 59.8046 -53.7900 0.0000 -0.0000 -11.3580 -47.0795 33.5014 -30.6912 7.1250 -0.0000 -0.0000 -7.7628 13.8541 -9.4713
0.00 0.00 0.00 -0.4864 -1.5869 4.8588 0.0000 0.0000 0.0000 -19.7919 0.7916 -8.4042 18.3671 19.9359 85.2208 -0.4157 13.3855 2.6888 0.8045 -5.7242 -15.9864 0.0000 0.0000 0.0000 25.8740 16.0405 -23.8403 -5.6062 -14.0356 43.3802 -1.4944 -1.7976 -23.8084 -0.0000 0.0122 -0.0336 0.0169 -2.0912 9.4210 2.0323 -2.7055 2.3257 2.4078 -1.3442 -2.7631 -3.0605 2.9713 -12.5195 -1.6680 4.2107 -9.4607 0.0969 2.1909 -0.9289 0.0000 0.0000 0.0000 -73.7847 12.2622 63.2246 103.6890 -59.2800 -71.8264 -0.0000 0.0000 -31.3179 32.9233 2.0329 1.3158 -7.1250 0.0000 -0.0000 5.1189 32.3731 -1.5880 0.0000 0.0000 0.0000 80.2885 -14.1771 41.1652 -87.9099 59.9835 -58.1900 0.0000 -0.0000 -10.8788 -46.5748 33.0685 -29.9631 7.1250 -0.0000 -0.0000 -7.6380 13.1296 -9.2455
0.00 0.00 0.00 -4.9862 -6.3221 3.2085 0.0000 0.0000 0.0000 -13.1436 2.8072 -18.2326 24.3159 19.5474 102.7108 -0.3624 10.8968 -1.3065 0.5035 -4.5489 -12.6264 0.0000 0.0000 0.0000 32.4015 16.2662 -17.5311 -6.4000 -14.8050 46.5666 -1.9735 1.2463 -26.2294 -0.0005 -0.1496 0.4110 4.3991 -0.8293 12.9289 3.2132 -0.3975 3.4537 0.9434 -0.2247 -3.6210 -2.8681 3.5753 -11.1091 -2.5746 4.8118 -12.8940 -0.2779 2.5542 -2.2399 -0.0000 -0.0000 0.0000 -74.0236 18.9797 59.2271 91.4012 -59.9926 -61.2134 -0.0000 0.0000 -28.3547 37.4912 2.5770 1.9753 -7.1250 0.0000 -0.0000 8.8567 33.1331 -2.6023 -0.0000 -0.0000 0.0000 77.2479 2.4369 43.9551 -94.2486 59.9317 -63.6785 0.0000 -0.0000 -9.9932 -47.9200 33.0499 -31.1317 7.1250 -0.0000 -0.0000 -8.3409 13.7665 -10.1799
0.00 0.00 0.00 -4.8248 -11.5667 4.9896 0.0000 0.0000 0.0000 -12.0950 -1.5710 -38.7173 27.3210 18.6632 111.8746 -0.1704 9.4362 -9.8274 0.7511 -5.5357 -15.4430 0.0000 0.0000 0.0000 32.6878 14.8666 -6.1648 -5.3202 -13.7356 42.1883 -2.3184 3.6063 -27.9305 -0.1025 2.0645 -5.6838 5.7337 0.9314 12.2096 1.8644 2.0040 2.9929 -1.5789 0.9470 -3.5682 -1.1525 3.1580 -9.5724 -1.3948 4.1635 -14.0058 -0.2391 2.1496 -2.8569 0.0000 0.0000 0.0000 -71.4829 34.4826 52.7196 79.0779 -59.5444 -50.5557 -0.0000 0.0000 -28.9141 37.2556 5.3568 4.0615 -7.1250 0.0000 -0.0000 8.9153 36.5715 -1.8663 0.0000 0.0000 0.0000 74.8174 24.6811 46.4629 -110.3696 58.3727 -77.5442 0.0000 -0.0000 -4.9180 -51.7024 36.3740 -36.9066 7.1250 -0.0000 -0.0000 -9.1066 19.4158 -11.7328
